<svg xmlns="http://www.w3.org/2000/svg" width="1024" height="1024" viewBox="0 0 1024 1024">
  <defs>
  <linearGradient id="skin" x1="0" y1="0" x2="0" y2="1">
    <stop offset="0" stop-color="#D6F7DD"/><stop offset="0.55" stop-color="#B4EDC2"/><stop offset="1" stop-color="#9CE3AE"/>
  </linearGradient>
  <linearGradient id="earIn" x1="0" y1="0" x2="0" y2="1">
    <stop offset="0" stop-color="#FFD3E2"/><stop offset="1" stop-color="#FBB9D0"/>
  </linearGradient>
  <radialGradient id="cheek" cx="0.5" cy="0.5" r="0.5">
    <stop offset="0" stop-color="#FF8FB6" stop-opacity="0.9"/><stop offset="0.7" stop-color="#FF9FC0" stop-opacity="0.35"/><stop offset="1" stop-color="#FF9FC0" stop-opacity="0"/>
  </radialGradient>
  <linearGradient id="eye" x1="0" y1="0" x2="0" y2="1">
    <stop offset="0" stop-color="#5A4B86"/><stop offset="1" stop-color="#3A2F5B"/>
  </linearGradient>
  <linearGradient id="bg" x1="0.1" y1="0" x2="0.9" y2="1">
    <stop offset="0" stop-color="#E7DEFF"/><stop offset="0.5" stop-color="#CFC2F7"/><stop offset="1" stop-color="#B3A4EE"/>
  </linearGradient>
  <radialGradient id="sheen" cx="0.32" cy="0.2" r="0.9">
    <stop offset="0" stop-color="#FFFFFF" stop-opacity="0.5"/>
    <stop offset="0.45" stop-color="#FFFFFF" stop-opacity="0.12"/>
    <stop offset="1" stop-color="#FFFFFF" stop-opacity="0"/>
  </radialGradient>
  <radialGradient id="vignette" cx="0.5" cy="0.62" r="0.78">
    <stop offset="0.55" stop-color="#6A4FB0" stop-opacity="0"/><stop offset="1" stop-color="#6A4FB0" stop-opacity="0.22"/>
  </radialGradient>
  <filter id="soft" x="-20%" y="-20%" width="140%" height="140%">
    <feDropShadow dx="0" dy="10" stdDeviation="14" flood-color="#5B3FA0" flood-opacity="0.3"/>
  </filter>
  <filter id="halo" x="-40%" y="-40%" width="180%" height="180%">
    <feDropShadow dx="0" dy="0" stdDeviation="24" flood-color="#BCE8C6" flood-opacity="0.6"/>
  </filter></defs>
  <rect width="1024" height="1024" fill="url(#bg)"/>
  <rect width="1024" height="1024" fill="url(#sheen)"/>
  <rect width="1024" height="1024" fill="url(#vignette)"/>
  <g transform="translate(512 560) scale(0.92) translate(-512 -560)" filter="url(#soft)">
    <g stroke="#8FD6A6" stroke-width="24" fill="none" stroke-linecap="round">
      <path d="M452 300 C 440 220, 420 205, 430 150"/>
      <path d="M572 300 C 584 220, 604 205, 594 150"/>
    </g>
    <circle cx="430" cy="140" r="30" fill="#FFD98A"/>
    <circle cx="594" cy="140" r="30" fill="#FFD98A"/>
    <circle cx="421" cy="132" r="10" fill="#FFF3D6" opacity="0.95"/>
    <circle cx="585" cy="132" r="10" fill="#FFF3D6" opacity="0.95"/>
    <path d="M330 360 C 300 250, 320 205, 372 232 C 424 258, 452 320, 452 360 Z"
          fill="url(#skin)" stroke="#8FD6A6" stroke-width="16" stroke-linejoin="round"/>
    <path d="M694 360 C 724 250, 704 205, 652 232 C 600 258, 572 320, 572 360 Z"
          fill="url(#skin)" stroke="#8FD6A6" stroke-width="16" stroke-linejoin="round"/>
    <path d="M356 336 C 344 275, 356 252, 384 268 C 410 283, 420 318, 418 344 Z" fill="url(#earIn)"/>
    <path d="M668 336 C 680 275, 668 252, 640 268 C 614 283, 604 318, 606 344 Z" fill="url(#earIn)"/>
    <ellipse cx="512" cy="565" rx="300" ry="285" fill="url(#skin)" stroke="#8FD6A6" stroke-width="16"/>
    <ellipse cx="322" cy="702" rx="74" ry="48" fill="url(#cheek)"/>
    <ellipse cx="702" cy="702" rx="74" ry="48" fill="url(#cheek)"/>
    <ellipse cx="410" cy="580" rx="86" ry="104" fill="url(#eye)"/>
    <ellipse cx="614" cy="580" rx="86" ry="104" fill="url(#eye)"/>
    <circle cx="392" cy="548" r="30" fill="#FFFFFF"/>
    <circle cx="596" cy="548" r="30" fill="#FFFFFF"/>
    <circle cx="432" cy="608" r="15" fill="#CDB8FF"/>
    <circle cx="636" cy="608" r="15" fill="#CDB8FF"/>
    <circle cx="420" cy="560" r="9" fill="#FFFFFF" opacity="0.9"/>
    <circle cx="624" cy="560" r="9" fill="#FFFFFF" opacity="0.9"/></g>
</svg>